<svg class="diagram-root" style="background: #f5f6f6" xmlns="http://www.w3.org/2000/svg" xmlns:xlink="http://www.w3.org/1999/xlink"><style>.diagram-root { font-family: "Helvetica Neue", sans-serif; font-size: 12px; } .t { overflow: visible; } .t-bg { y: 40; fill: #fff;   } .th { fill: #005aa0;   } .tht { fill: #fff; font-size: 14px;  } .tf { fill: #323c46; overflow: visible; } .tf.pk { fill: #005aa0; font-weight: bold; } .tf.fk { font-weight: bold; } .ty { fill: #adb1b5; font-weight: normal; text-anchor: end; } .r { fill: transparent; stroke: #c3c3c3; stroke-width: 1; } .l { stroke: 1; } .i { fill: #c2c7ce; stroke: #c2c7ce; } .i.ix { fill: #afb3b6; stroke: #000; } .fa { fill: transparent; overflow: visible; } .fa .bg.hover { fill: #f7f7f7; } .c { cy: 12; r: 4; stroke: #d2d2dc; fill: #d2d2dc; } .hr { fill: transparent; stroke: #323c46; stroke-opacity: 0.035; stroke-width: 13; } .dc { stroke: #fa5a3c; fill: #fa5a3c; } .x { stroke: white; stroke-width: 1; } .hl .th { fill: #1b9bff; } .hl .tht {  } .fhl .bg { fill: #e7f4ff; } .fhls .bg {  } .r.hl { stroke: #1b9bff; } .dim { opacity: 0.25; }</style><g class="drawing-wrapper" transform="translate(437, -253.33333333333337) scale(1,1)"><g class="rs"><path d="M -21.62 792.67 m -1, 0 a 1,1 0 1,0 2,0 a 1,1 0 1,0 -2,0 M -21.62 792.67 m -0.5, 0 a 0.5,0.5 0 1,0 1,0 a 0.5,0.5 0 1,0 -1,0  M-21.62 792.67 L-21.62 792.67 -9.620000000000001 792.67 M-15.620000000000001 798.67 L-15.620000000000001 798.67 -15.620000000000001 786.67 M-9.620000000000001 792.67 Q 23.2 792.67, 56.02 686.67 T 121.66999999999999 580.67 M 133.67 580.67 m -1, 0 a 1,1 0 1,0 2,0 a 1,1 0 1,0 -2,0 M 133.67 580.67 m -0.5, 0 a 0.5,0.5 0 1,0 1,0 a 0.5,0.5 0 1,0 -1,0  M133.67 580.67 L133.67 580.67 121.66999999999999 580.67 M127.66999999999999 586.67 L127.66999999999999 586.67 127.66999999999999 574.67" id="h1139284389" class="r"></path><path d="M -143.67 817.67 m -1, 0 a 1,1 0 1,0 2,0 a 1,1 0 1,0 -2,0 M -143.67 817.67 m -0.5, 0 a 0.5,0.5 0 1,0 1,0 a 0.5,0.5 0 1,0 -1,0  M-143.67 817.67 L-143.67 817.67 -155.67 817.67 M -143.67 823.67 m -1, 0 a 1,1 0 1,0 2,0 a 1,1 0 1,0 -2,0 M -143.67 823.67 m -0.5, 0 a 0.5,0.5 0 1,0 1,0 a 0.5,0.5 0 1,0 -1,0  M-143.67 823.67 L-143.67 823.67 -150.67 817.67 -143.67 811.67 M -143.67 811.67 m -1, 0 a 1,1 0 1,0 2,0 a 1,1 0 1,0 -2,0 M -143.67 811.67 m -0.5, 0 a 0.5,0.5 0 1,0 1,0 a 0.5,0.5 0 1,0 -1,0  M-155.67 817.67 Q -171.65 817.67, -187.63 736.34 T -219.6 655 M -231.6 655 m -1, 0 a 1,1 0 1,0 2,0 a 1,1 0 1,0 -2,0 M -231.6 655 m -0.5, 0 a 0.5,0.5 0 1,0 1,0 a 0.5,0.5 0 1,0 -1,0  M-231.6 655 L-231.6 655 -219.6 655 M-225.6 661 L-225.6 661 -225.6 649" id="h1607168654" class="r"></path><path d="M 289.72 340.33 m -1, 0 a 1,1 0 1,0 2,0 a 1,1 0 1,0 -2,0 M 289.72 340.33 m -0.5, 0 a 0.5,0.5 0 1,0 1,0 a 0.5,0.5 0 1,0 -1,0  M289.72 340.33 L289.72 340.33 292.72 340.33 M 295.72 340.33 m -3, 0 a 3,3 0 1,0 6,0 a 3,3 0 1,0 -6,0 M298.72 340.33 L298.72 340.33 301.72 340.33 M301.72 340.33 C 363.448 340.33, 359.05 580.67, 309.05 580.67 M 297.05 580.67 m -1, 0 a 1,1 0 1,0 2,0 a 1,1 0 1,0 -2,0 M 297.05 580.67 m -0.5, 0 a 0.5,0.5 0 1,0 1,0 a 0.5,0.5 0 1,0 -1,0  M297.05 580.67 L297.05 580.67 309.05 580.67 M303.05 586.67 L303.05 586.67 303.05 574.67" id="h2286254435" class="r"></path><path d="M 167.67 365.33 m -1, 0 a 1,1 0 1,0 2,0 a 1,1 0 1,0 -2,0 M 167.67 365.33 m -0.5, 0 a 0.5,0.5 0 1,0 1,0 a 0.5,0.5 0 1,0 -1,0  M167.67 365.33 L167.67 365.33 155.67 365.33 M 167.67 371.33 m -1, 0 a 1,1 0 1,0 2,0 a 1,1 0 1,0 -2,0 M 167.67 371.33 m -0.5, 0 a 0.5,0.5 0 1,0 1,0 a 0.5,0.5 0 1,0 -1,0  M167.67 371.33 L167.67 371.33 160.67 365.33 167.67 359.33 M 167.67 359.33 m -1, 0 a 1,1 0 1,0 2,0 a 1,1 0 1,0 -2,0 M 167.67 359.33 m -0.5, 0 a 0.5,0.5 0 1,0 1,0 a 0.5,0.5 0 1,0 -1,0  M155.67 365.33 Q 61.85 365.33, -31.97 510.17 T -219.6 655 M -231.6 655 m -1, 0 a 1,1 0 1,0 2,0 a 1,1 0 1,0 -2,0 M -231.6 655 m -0.5, 0 a 0.5,0.5 0 1,0 1,0 a 0.5,0.5 0 1,0 -1,0  M-231.6 655 L-231.6 655 -219.6 655 M-225.6 661 L-225.6 661 -225.6 649" id="h1397587031" class="r"></path><path d="M 297.05 605.67 m -1, 0 a 1,1 0 1,0 2,0 a 1,1 0 1,0 -2,0 M 297.05 605.67 m -0.5, 0 a 0.5,0.5 0 1,0 1,0 a 0.5,0.5 0 1,0 -1,0  M297.05 605.67 L297.05 605.67 309.05 605.67 M 297.05 611.67 m -1, 0 a 1,1 0 1,0 2,0 a 1,1 0 1,0 -2,0 M 297.05 611.67 m -0.5, 0 a 0.5,0.5 0 1,0 1,0 a 0.5,0.5 0 1,0 -1,0  M297.05 611.67 L297.05 611.67 304.05 605.67 297.05 599.67 M 297.05 599.67 m -1, 0 a 1,1 0 1,0 2,0 a 1,1 0 1,0 -2,0 M 297.05 599.67 m -0.5, 0 a 0.5,0.5 0 1,0 1,0 a 0.5,0.5 0 1,0 -1,0  M309.05 605.67 Q 329.04 605.67, 349.03 563.84 T 389 522 M 401 522 m -1, 0 a 1,1 0 1,0 2,0 a 1,1 0 1,0 -2,0 M 401 522 m -0.5, 0 a 0.5,0.5 0 1,0 1,0 a 0.5,0.5 0 1,0 -1,0  M401 522 L401 522 389 522 M395 528 L395 528 395 516" id="h204939704" class="r"></path><path d="M 311.7 887.34 m -1, 0 a 1,1 0 1,0 2,0 a 1,1 0 1,0 -2,0 M 311.7 887.34 m -0.5, 0 a 0.5,0.5 0 1,0 1,0 a 0.5,0.5 0 1,0 -1,0  M311.7 887.34 L311.7 887.34 323.7 887.34 M317.7 893.34 L317.7 893.34 317.7 881.34 M323.7 887.34 C 367.8608315642317 887.34, 376.6508315642317 755.67, 309.05 755.67 M 297.05 755.67 m -1, 0 a 1,1 0 1,0 2,0 a 1,1 0 1,0 -2,0 M 297.05 755.67 m -0.5, 0 a 0.5,0.5 0 1,0 1,0 a 0.5,0.5 0 1,0 -1,0  M297.05 755.67 L297.05 755.67 309.05 755.67 M303.05 761.67 L303.05 761.67 303.05 749.67" id="h1631659234" class="r"></path></g><g class="hrs"></g><g class="ts"><svg width="122.05" height="100" x="-143.67" y="735.67" id="h1090417462" class="t"><rect height="40" width="122.05" class="th"></rect><text x="13" y="25" class="tht">dept_emp</text><rect height="60" width="122.05" class="t-bg"></rect><text x="13" y="61" class="tf pk">emp_no<tspan x="109.05" class="ty">int</tspan></text><path d="M7,14A2,2 0 0,1 5,12A2,2 0 0,1 7,10A2,2 0 0,1 9,12A2,2 0 0,1 7,14M12.65,10C11.83,7.67 9.61,6 7, 6A6, 6 0 0, 0 1, 12A6, 6 0 0, 0 7, 18C9.61, 18 11.83, 16.33 12.65, 14H17V18H21V14H23V10H12.65Z" class="i pk" transform="translate(76.376171875, 48) scale(0.65)"></path><text x="13" y="86" class="tf pk">dept_no<tspan x="109.05" class="ty">int</tspan></text><path d="M7,14A2,2 0 0,1 5,12A2,2 0 0,1 7,10A2,2 0 0,1 9,12A2,2 0 0,1 7,14M12.65,10C11.83,7.67 9.61,6 7, 6A6, 6 0 0, 0 1, 12A6, 6 0 0, 0 7, 18C9.61, 18 11.83, 16.33 12.65, 14H17V18H21V14H23V10H12.65Z" class="i pk" transform="translate(76.376171875, 73) scale(0.65)"></path></svg><svg width="122.05" height="100" x="167.67" y="283.33" id="h1676682957" class="t"><rect height="40" width="122.05" class="th"></rect><text x="13" y="25" class="tht">dept_manager</text><rect height="60" width="122.05" class="t-bg"></rect><text x="13" y="61" class="tf pk">emp_no<tspan x="109.05" class="ty">int</tspan></text><path d="M7,14A2,2 0 0,1 5,12A2,2 0 0,1 7,10A2,2 0 0,1 9,12A2,2 0 0,1 7,14M12.65,10C11.83,7.67 9.61,6 7, 6A6, 6 0 0, 0 1, 12A6, 6 0 0, 0 7, 18C9.61, 18 11.83, 16.33 12.65, 14H17V18H21V14H23V10H12.65Z" class="i pk" transform="translate(76.376171875, 48) scale(0.65)"></path><text x="13" y="86" class="tf pk">dept_no<tspan x="109.05" class="ty">int</tspan></text><path d="M7,14A2,2 0 0,1 5,12A2,2 0 0,1 7,10A2,2 0 0,1 9,12A2,2 0 0,1 7,14M12.65,10C11.83,7.67 9.61,6 7, 6A6, 6 0 0, 0 1, 12A6, 6 0 0, 0 7, 18C9.61, 18 11.83, 16.33 12.65, 14H17V18H21V14H23V10H12.65Z" class="i pk" transform="translate(76.376171875, 73) scale(0.65)"></path></svg><svg width="163.38" height="250" x="133.67" y="523.67" id="h1639608377" class="t"><rect height="40" width="163.38" class="th"></rect><text x="13" y="25" class="tht">employees</text><rect height="210" width="163.38" class="t-bg"></rect><text x="13" y="61" class="tf pk">emp_no<tspan x="150.38" class="ty">int</tspan></text><path d="M7,14A2,2 0 0,1 5,12A2,2 0 0,1 7,10A2,2 0 0,1 9,12A2,2 0 0,1 7,14M12.65,10C11.83,7.67 9.61,6 7, 6A6, 6 0 0, 0 1, 12A6, 6 0 0, 0 7, 18C9.61, 18 11.83, 16.33 12.65, 14H17V18H21V14H23V10H12.65Z" class="i pk" transform="translate(117.706171875, 48) scale(0.65)"></path><text x="13" y="86" class="tf fk">emp_title<tspan x="150.38" class="ty">varchar(30)</tspan></text><text x="13" y="111" class="tf">birth_date<tspan x="150.38" class="ty">date</tspan></text><text x="13" y="136" class="tf">first_name<tspan x="150.38" class="ty">varchar(30)</tspan></text><text x="13" y="161" class="tf">last_name<tspan x="150.38" class="ty">varchar(30)</tspan></text><text x="13" y="186" class="tf">sex<tspan x="150.38" class="ty">varchar(1)</tspan></text><text x="13" y="211" class="tf">hire_date<tspan x="150.38" class="ty">date</tspan></text><text x="13" y="236" class="tf">...</text></svg><svg width="122.04" height="100" x="189.66" y="830.34" id="h2472833127" class="t"><rect height="40" width="122.04" class="th"></rect><text x="13" y="25" class="tht">salaries</text><rect height="60" width="122.04" class="t-bg"></rect><text x="13" y="61" class="tf pk">emp_no<tspan x="109.04" class="ty">int</tspan></text><path d="M7,14A2,2 0 0,1 5,12A2,2 0 0,1 7,10A2,2 0 0,1 9,12A2,2 0 0,1 7,14M12.65,10C11.83,7.67 9.61,6 7, 6A6, 6 0 0, 0 1, 12A6, 6 0 0, 0 7, 18C9.61, 18 11.83, 16.33 12.65, 14H17V18H21V14H23V10H12.65Z" class="i pk" transform="translate(76.366171875, 48) scale(0.65)"></path><text x="13" y="86" class="tf">salary<tspan x="109.04" class="ty">int</tspan></text></svg><svg width="162.04" height="100" x="401" y="465" id="h311790747" class="t"><rect height="40" width="162.04" class="th"></rect><text x="13" y="25" class="tht">titles</text><rect height="60" width="162.04" class="t-bg"></rect><text x="13" y="61" class="tf pk">title_id<tspan x="149.04" class="ty">varchar(30)</tspan></text><path d="M7,14A2,2 0 0,1 5,12A2,2 0 0,1 7,10A2,2 0 0,1 9,12A2,2 0 0,1 7,14M12.65,10C11.83,7.67 9.61,6 7, 6A6, 6 0 0, 0 1, 12A6, 6 0 0, 0 7, 18C9.61, 18 11.83, 16.33 12.65, 14H17V18H21V14H23V10H12.65Z" class="i pk" transform="translate(67.68648437499999, 48) scale(0.65)"></path><text x="13" y="86" class="tf">title<tspan x="149.04" class="ty">varchar(30)</tspan></text><path d="M22,18V22H18V19H15V16H12L9.74,13.74C9.19,13.91 8.61,14 8,14A6,6 0 0,1 2,8A6,6 0 0,1 8,2A6,6 0 0,1 14,8C14,8.61 13.91, 9.19 13.74, 9.74L22, 18M7, 5A2, 2 0 0, 0 5, 7A2, 2 0 0, 0 7, 9A2, 2 0 0, 0 9, 7A2, 2 0 0, 0 7, 5Z" class="i uq" transform="translate(71.68648437499999, 75.5) scale(0.5)"></path></svg><svg width="183.4" height="100" x="-415" y="598" id="h475896179" class="t"><rect height="40" width="183.4" class="th"></rect><text x="13" y="25" class="tht">departments</text><rect height="60" width="183.4" class="t-bg"></rect><text x="13" y="61" class="tf pk">dept_no<tspan x="170.4" class="ty">varchar(30)</tspan></text><path d="M7,14A2,2 0 0,1 5,12A2,2 0 0,1 7,10A2,2 0 0,1 9,12A2,2 0 0,1 7,14M12.65,10C11.83,7.67 9.61,6 7, 6A6, 6 0 0, 0 1, 12A6, 6 0 0, 0 7, 18C9.61, 18 11.83, 16.33 12.65, 14H17V18H21V14H23V10H12.65Z" class="i pk" transform="translate(89.046484375, 48) scale(0.65)"></path><text x="13" y="86" class="tf">dept_name<tspan x="170.4" class="ty">varchar(30)</tspan></text><path d="M22,18V22H18V19H15V16H12L9.74,13.74C9.19,13.91 8.61,14 8,14A6,6 0 0,1 2,8A6,6 0 0,1 8,2A6,6 0 0,1 14,8C14,8.61 13.91, 9.19 13.74, 9.74L22, 18M7, 5A2, 2 0 0, 0 5, 7A2, 2 0 0, 0 7, 9A2, 2 0 0, 0 9, 7A2, 2 0 0, 0 7, 5Z" class="i uq" transform="translate(93.046484375, 75.5) scale(0.5)"></path></svg></g></g><text class="qdbd-link" x="10" y="20">www.quickdatabasediagrams.com</text></svg>